HIERARCHY
ROOT hip
{
  OFFSET 0 0 0
  CHANNELS 6 Xposition Yposition Zposition Zrotation Yrotation Xrotation
  JOINT abdomen
  {
    OFFSET 0 20.6881 -0.73152
    CHANNELS 3 Zrotation Xrotation Yrotation
    JOINT chest
    {
      OFFSET 0 11.7043 -0.48768
      CHANNELS 3 Zrotation Xrotation Yrotation
      JOINT neck
      {
        OFFSET 0 22.1894 -2.19456
        CHANNELS 3 Zrotation Xrotation Yrotation
        JOINT head
        {
          OFFSET -0.24384 7.07133 1.2192
          CHANNELS 3 Zrotation Xrotation Yrotation
          JOINT leftEye
          {
            OFFSET 4.14528 8.04674 8.04672
            CHANNELS 3 Zrotation Xrotation Yrotation
            End Site
            {
              OFFSET 1 0 0
            }
          }
          JOINT rightEye
          {
            OFFSET -3.6576 8.04674 8.04672
            CHANNELS 3 Zrotation Xrotation Yrotation
            End Site
            {
              OFFSET 1 0 0
            }
          }
        }
      }
      JOINT rCollar
      {
        OFFSET -2.68224 19.2634 -4.8768
        CHANNELS 3 Zrotation Xrotation Yrotation
        JOINT rShldr
        {
          OFFSET -8.77824 -1.95073 1.46304
          CHANNELS 3 Zrotation Xrotation Yrotation
          JOINT rForeArm
          {
            OFFSET -28.1742 -1.7115 0.48768
            CHANNELS 3 Zrotation Xrotation Yrotation
            JOINT rHand
            {
              OFFSET -22.5879 0.773209 7.07136
              CHANNELS 3 Zrotation Xrotation Yrotation
              JOINT rThumb1
              {
                OFFSET -1.2192 -0.487915 3.41376
                CHANNELS 3 Zrotation Xrotation Yrotation
                JOINT rThumb2
                {
                  OFFSET -3.37035 -0.52449 3.41376
                  CHANNELS 3 Zrotation Xrotation Yrotation
                  End Site
                  {
                    OFFSET -1.78271 -1.18214 1.43049
                  }
                }
              }
              JOINT rIndex1
              {
                OFFSET -7.75947 0.938293 5.60832
                CHANNELS 3 Zrotation Xrotation Yrotation
                JOINT rIndex2
                {
                  OFFSET -2.54057 -0.884171 1.56538
                  CHANNELS 3 Zrotation Xrotation Yrotation
                  End Site
                  {
                    OFFSET -1.62519 -0.234802 1.16502
                  }
                }
              }
              JOINT rMid1
              {
                OFFSET -8.24714 1.18213 3.41376
                CHANNELS 3 Zrotation Xrotation Yrotation
                JOINT rMid2
                {
                  OFFSET -3.10165 -0.590103 1.0647
                  CHANNELS 3 Zrotation Xrotation Yrotation
                  End Site
                  {
                    OFFSET -2.48547 -0.328903 0.83742
                  }
                }
              }
              JOINT rRing1
              {
                OFFSET -8.82822 0.546677 1.51678
                CHANNELS 3 Zrotation Xrotation Yrotation
                JOINT rRing2
                {
                  OFFSET -2.60934 -0.819778 -0.0198488
                  CHANNELS 3 Zrotation Xrotation Yrotation
                  End Site
                  {
                    OFFSET -2.33842 -0.294052 0.168128
                  }
                }
              }
              JOINT rPinky1
              {
                OFFSET -8.27202 -0.0477905 -0.4584
                CHANNELS 3 Zrotation Xrotation Yrotation
                JOINT rPinky2
                {
                  OFFSET -1.82734 -0.647385 -0.700984
                  CHANNELS 3 Zrotation Xrotation Yrotation
                  End Site
                  {
                    OFFSET -1.69225 -0.51767 -0.607171
                  }
                }
              }
            }
          }
        }
      }
      JOINT lCollar
      {
        OFFSET 2.68224 19.2634 -4.8768
        CHANNELS 3 Zrotation Xrotation Yrotation
        JOINT lShldr
        {
          OFFSET 8.77824 -1.95073 1.46304
          CHANNELS 3 Zrotation Xrotation Yrotation
          JOINT lForeArm
          {
            OFFSET 28.1742 -1.7115 0.48768
            CHANNELS 3 Zrotation Xrotation Yrotation
            JOINT lHand
            {
              OFFSET 22.5879 0.773209 7.07136
              CHANNELS 3 Zrotation Xrotation Yrotation
              JOINT lThumb1
              {
                OFFSET 1.2192 -0.487915 3.41376
                CHANNELS 3 Zrotation Xrotation Yrotation
                JOINT lThumb2
                {
                  OFFSET 3.37035 -0.52449 3.41376
                  CHANNELS 3 Zrotation Xrotation Yrotation
                  End Site
                  {
                    OFFSET 1.78271 -1.18214 1.43049
                  }
                }
              }
              JOINT lIndex1
              {
                OFFSET 7.75947 0.938293 5.60832
                CHANNELS 3 Zrotation Xrotation Yrotation
                JOINT lIndex2
                {
                  OFFSET 2.54057 -0.884171 1.56538
                  CHANNELS 3 Zrotation Xrotation Yrotation
                  End Site
                  {
                    OFFSET 1.62519 -0.234802 1.16502
                  }
                }
              }
              JOINT lMid1
              {
                OFFSET 8.24714 1.18213 3.41376
                CHANNELS 3 Zrotation Xrotation Yrotation
                JOINT lMid2
                {
                  OFFSET 3.10165 -0.590103 1.0647
                  CHANNELS 3 Zrotation Xrotation Yrotation
                  End Site
                  {
                    OFFSET 2.48547 -0.328903 0.83742
                  }
                }
              }
              JOINT lRing1
              {
                OFFSET 8.82822 0.546677 1.51678
                CHANNELS 3 Zrotation Xrotation Yrotation
                JOINT lRing2
                {
                  OFFSET 2.60934 -0.819778 -0.0198488
                  CHANNELS 3 Zrotation Xrotation Yrotation
                  End Site
                  {
                    OFFSET 2.33842 -0.294052 0.168128
                  }
                }
              }
              JOINT lPinky1
              {
                OFFSET 8.27202 -0.0477905 -0.4584
                CHANNELS 3 Zrotation Xrotation Yrotation
                JOINT lPinky2
                {
                  OFFSET 1.82734 -0.647385 -0.700984
                  CHANNELS 3 Zrotation Xrotation Yrotation
                  End Site
                  {
                    OFFSET 1.69225 -0.51767 -0.607171
                  }
                }
              }
            }
          }
        }
      }
    }
  }
  JOINT rButtock
  {
    OFFSET -8.77824 4.35084 1.2192
    CHANNELS 3 Zrotation Xrotation Yrotation
    JOINT rThigh
    {
      OFFSET 0 -1.70687 -2.19456
      CHANNELS 3 Zrotation Xrotation Yrotation
      JOINT rShin
      {
        OFFSET 0 -36.8199 0.73152
        CHANNELS 3 Zrotation Xrotation Yrotation
        JOINT rFoot
        {
          OFFSET 0.73152 -45.1104 -5.12064
          CHANNELS 3 Zrotation Xrotation Yrotation
          End Site
          {
            OFFSET -1.1221 -3.69964 12.103
          }
        }
      }
    }
  }
  JOINT lButtock
  {
    OFFSET 8.77824 4.35084 1.2192
    CHANNELS 3 Zrotation Xrotation Yrotation
    JOINT lThigh
    {
      OFFSET 0 -1.70687 -2.19456
      CHANNELS 3 Zrotation Xrotation Yrotation
      JOINT lShin
      {
        OFFSET 0 -36.8199 0.73152
        CHANNELS 3 Zrotation Xrotation Yrotation
        JOINT lFoot
        {
          OFFSET -0.73152 -45.1104 -5.12064
          CHANNELS 3 Zrotation Xrotation Yrotation
          End Site
          {
            OFFSET 1.1221 -3.69964 12.103
          }
        }
      }
    }
  }
}
MOTION
Frames:	9
Frame Time:	0.00833333
-35.0118 84.1002 6.61866 0.0 0.0 0.0 -1.51927 -0.00282937 -0.0413937 -0.418702 0.00102629 -0.0725118 -1.45963e-14 -2.38542e-15 -5.46658e-16 -4.38103e-14 3.18055e-15 -1.66637e-15 -0.0 0.0 0.0 -0.0 0.0 0.0 -7.35676e-15 -2.75658e-17 0.0 -1.50345e-13 -5.59082e-16 -4.96962e-15 -2.63131e-12 7.71285e-13 -1.04958e-13 -3.01648e-11 -9.0283e-13 -1.11637e-12 -7.11445e-11 -2.8524e-13 -2.64304e-12 -1.22875e-10 -4.96167e-13 -4.56012e-12 -7.11395e-11 -2.83865e-13 -2.6494e-12 7.73091 5.47488 0.417314 -7.11462e-11 -2.85455e-13 -2.63986e-12 2.90554 0.965183 0.102902 -7.11386e-11 -2.85057e-13 -2.63747e-12 10.2786 0.731801 0.0259123 -7.11498e-11 -2.85057e-13 -2.62714e-12 2.22167 -0.733487 -0.20892 -7.35379e-15 -2.75658e-17 -3.97569e-16 -1.5468e-13 -4.84538e-16 -7.15625e-15 -2.63653e-12 -8.10843e-13 -8.26944e-14 -3.01653e-11 6.88242e-13 -1.1291e-12 -7.11541e-11 -2.67372e-13 -2.63032e-12 -1.22876e-10 -4.64361e-13 -4.54501e-12 -7.11582e-11 -2.66371e-13 -2.62714e-12 -7.73091 5.47488 -0.417314 -7.11534e-11 -2.67266e-13 -2.63668e-12 -2.90554 0.965183 -0.102902 -7.11594e-11 -2.67664e-13 -2.63509e-12 -10.2786 0.731801 -0.0259123 -7.11514e-11 -2.65576e-13 -2.64622e-12 -2.22167 -0.733487 0.20892 -2.03217e-16 0.0 -3.88251e-19 -0.640484 -1.92323 -0.00643723 -0.00925506 -2.07856 -0.0764315 -0.512211 3.99733 0.14032 2.03217e-16 0.0 3.88251e-19 -1.66968 -6.49783 0.154693 -0.00231096 6.20801 -0.0679866 0.533988 0.285483 -0.0665613
-35.1407 81.8198 1.23466 -68.9849 85.5261 -51.5297 -0.826762 1.73061 1.03689 0.872685 0.44557 0.26556 0.690777 -0.0725245 -0.354396 -1.65489 6.64573 0.224108 -0.0 0.0 0.0 -0.0 0.0 0.0 2.45729e-14 -2.54831e-14 2.97102e-14 24.8688 8.86572 8.24522 -2.68107 -1.01802 4.3799 0.0971137 -6.92204 -0.94738 -3.65329e-11 4.41739e-10 6.46782e-10 -7.2373e-11 7.6283e-10 1.11654e-09 -3.65277e-11 4.4174e-10 6.46776e-10 7.73091 5.47488 0.417314 -3.65344e-11 4.41739e-10 6.46784e-10 2.90554 0.965183 0.102902 -3.65262e-11 4.41739e-10 6.46788e-10 10.2786 0.731801 0.0259123 -3.65388e-11 4.41739e-10 6.46797e-10 2.22167 -0.733487 -0.20892 2.45813e-14 -2.54818e-14 2.93693e-14 -24.985 22.2044 -8.52967 3.7223 -1.60315 -5.906 -0.274037 -11.658 1.51862 2.71702e-10 5.15003e-10 -6.2335e-10 4.86641e-10 8.81035e-10 -1.06397e-09 2.717e-10 5.15009e-10 -6.23351e-10 -7.73091 5.47488 -0.417314 2.71703e-10 5.15003e-10 -6.23354e-10 -2.90554 0.965183 -0.102902 2.71698e-10 5.15002e-10 -6.23354e-10 -10.2786 0.731801 -0.0259123 2.71706e-10 5.15005e-10 -6.23363e-10 -2.22167 -0.733487 0.20892 -2.03217e-16 0.0 -3.88251e-19 -2.83624 -11.0281 -0.860635 -0.00649894 6.06847 0.0432449 -0.611063 2.26063 -2.93404 2.03217e-16 0.0 3.88251e-19 2.37664 -14.7032 2.99948 -0.0231569 13.9043 -0.220126 0.429388 -2.18395 0.347727
-35.1412 81.8215 1.24055 -69.025 85.5062 -51.5674 -0.162667 3.56078 2.18051 2.23068 0.915418 0.623245 1.42226 -0.149707 -0.72954 -3.46465 13.6704 0.469991 -0.0 0.0 0.0 -0.0 0.0 0.0 5.50942e-14 -5.91626e-14 5.84706e-14 48.3034 17.6182 17.6104 -5.34611 -2.07414 9.01363 -0.0562661 -14.2336 -1.99603 5.01136e-11 8.72724e-10 1.29939e-09 6.79115e-11 1.50708e-09 2.24418e-09 5.01188e-11 8.72727e-10 1.29938e-09 7.73091 5.47488 0.417314 5.01122e-11 8.72725e-10 1.29939e-09 2.90554 0.965183 0.102902 5.01209e-11 8.72725e-10 1.2994e-09 10.2786 0.731801 0.0259123 5.01068e-11 8.72725e-10 1.2994e-09 2.22167 -0.733487 -0.20892 5.51107e-14 -5.91598e-14 5.81911e-14 -41.847 43.8119 -22.7973 7.30153 -3.24213 -12.1667 0.16564 -23.9605 3.34912 6.3677e-10 1.04989e-09 -1.26318e-09 1.13518e-09 1.79626e-09 -2.15578e-09 6.36768e-10 1.0499e-09 -1.26318e-09 -7.73091 5.47488 -0.417314 6.36771e-10 1.04989e-09 -1.26318e-09 -2.90554 0.965183 -0.102902 6.36766e-10 1.04989e-09 -1.26318e-09 -10.2786 0.731801 -0.0259123 6.36774e-10 1.04989e-09 -1.26319e-09 -2.22167 -0.733487 0.20892 -2.03217e-16 0.0 -3.88251e-19 -5.46661 -20.6465 -1.84911 -0.0414693 14.6793 0.174825 -0.91712 0.434945 -6.17944 2.03217e-16 0.0 3.88251e-19 7.6182 -23.2924 6.32471 0.00280732 22.0419 -0.397128 0.357833 -4.79315 0.787958
-35.1393 81.8228 1.24792 -69.2285 85.4816 -51.7818 0.361951 5.19026 3.20518 3.43972 1.33449 0.941934 2.06964 -0.21754 -1.06319 -5.1291 19.9359 0.710378 -0.0 0.0 0.0 -0.0 0.0 0.0 8.84322e-14 -7.63941e-14 8.91305e-14 66.6056 24.298 26.9954 -7.58029 -2.98277 13.1558 -0.435548 -20.7426 -3.01715 3.26904e-11 1.32579e-09 1.94563e-09 2.86306e-11 2.28948e-09 3.35874e-09 3.26958e-11 1.32579e-09 1.94563e-09 7.73091 5.47488 0.417314 3.26892e-11 1.32579e-09 1.94563e-09 2.90554 0.965183 0.102902 3.26985e-11 1.32579e-09 1.94564e-09 10.2786 0.731801 0.0259123 3.26831e-11 1.32579e-09 1.94564e-09 2.22167 -0.733487 -0.20892 8.84515e-14 -7.63902e-14 8.8903e-14 -40.8752 57.6481 -48.6341 10.1902 -4.60543 -17.7703 1.37344 -34.8645 5.4406 9.57416e-10 1.54554e-09 -1.86479e-09 1.70568e-09 2.64403e-09 -3.18282e-09 9.57415e-10 1.54556e-09 -1.8648e-09 -7.73091 5.47488 -0.417314 9.57417e-10 1.54554e-09 -1.86479e-09 -2.90554 0.965183 -0.102902 9.57413e-10 1.54554e-09 -1.86479e-09 -10.2786 0.731801 -0.0259123 9.57421e-10 1.54555e-09 -1.8648e-09 -2.22167 -0.733487 0.20892 -2.03217e-16 0.0 -3.88251e-19 -8.14505 -29.2104 -2.88899 -0.108737 22.3623 0.304684 -1.36576 -1.18883 -9.07719 2.03217e-16 0.0 3.88251e-19 13.2664 -30.8009 9.78743 0.0749962 29.2958 -0.580038 0.327987 -7.12142 1.18469
-35.1418 81.8245 1.2342 -69.0149 85.5348 -51.5642 0.676692 6.32497 3.92125 4.28749 1.62679 1.16291 2.50869 -0.262033 -1.29311 -6.31292 24.3047 0.90148 -0.0 0.0 0.0 -0.0 0.0 0.0 1.28812e-13 -5.25059e-14 1.24539e-13 77.9084 28.0007 34.2311 -9.06189 -3.59049 16.0536 -0.852856 -25.2676 -3.80358 -2.44907e-10 1.83404e-09 2.57596e-09 -4.59564e-10 3.16729e-09 4.44057e-09 -2.44901e-10 1.83404e-09 2.57596e-09 7.73091 5.47488 0.417314 -2.44908e-10 1.83404e-09 2.57596e-09 2.90554 0.965183 0.102902 -2.44898e-10 1.83404e-09 2.57597e-09 10.2786 0.731801 0.0259123 -2.44914e-10 1.83404e-09 2.57597e-09 2.22167 -0.733487 -0.20892 1.28821e-13 -5.25015e-14 1.2434e-13 -29.4639 60.1384 -75.8379 12.0369 -5.47452 -21.6814 2.85865 -42.3739 7.3664 1.16701e-09 1.9431e-09 -2.37085e-09 2.0811e-09 3.32319e-09 -4.04796e-09 1.16701e-09 1.94312e-09 -2.37086e-09 -7.73091 5.47488 -0.417314 1.16701e-09 1.9431e-09 -2.37085e-09 -2.90554 0.965183 -0.102902 1.16701e-09 1.9431e-09 -2.37085e-09 -10.2786 0.731801 -0.0259123 1.16702e-09 1.94311e-09 -2.37086e-09 -2.22167 -0.733487 0.20892 -2.03217e-16 0.0 -3.88251e-19 -10.2663 -35.1638 -3.76366 -0.179102 27.7257 0.407558 -1.78205 -2.33892 -11.1017 2.03217e-16 0.0 3.88251e-19 17.843 -35.8932 12.6154 0.158749 34.3414 -0.728988 0.326152 -8.7487 1.46447
-35.146 81.826 1.20746 -68.5864 85.6292 -51.1212 0.753148 6.77125 4.19664 4.63787 1.74226 1.2465 2.65595 -0.27385 -1.37645 -6.76449 26.0188 0.99883 -0.0 0.0 0.0 -0.0 0.0 0.0 1.92285e-13 3.08128e-14 1.78652e-13 82.0483 29.1685 37.1834 -9.62985 -3.82362 17.1991 -1.0524 -27.012 -4.12906 -1.08032e-09 2.56966e-09 3.35899e-09 -1.91305e-09 4.43779e-09 5.77471e-09 -1.08031e-09 2.56966e-09 3.35899e-09 7.73091 5.47488 0.417314 -1.08032e-09 2.56966e-09 3.359e-09 2.90554 0.965183 0.102902 -1.08031e-09 2.56966e-09 3.359e-09 10.2786 0.731801 0.0259123 -1.08033e-09 2.56966e-09 3.35901e-09 2.22167 -0.733487 -0.20892 1.92261e-13 3.0817e-14 1.78449e-13 -24.9215 59.0249 -86.2149 12.712 -5.78447 -23.1889 3.62303 -45.226 8.2622 1.21655e-09 2.27466e-09 -2.85192e-09 2.17825e-09 3.88833e-09 -4.87365e-09 1.21655e-09 2.27467e-09 -2.85193e-09 -7.73091 5.47488 -0.417314 1.21655e-09 2.27466e-09 -2.85192e-09 -2.90554 0.965183 -0.102902 1.21655e-09 2.27466e-09 -2.85192e-09 -10.2786 0.731801 -0.0259123 1.21655e-09 2.27466e-09 -2.85193e-09 -2.22167 -0.733487 0.20892 -2.03217e-16 0.0 -3.88251e-19 -11.2216 -37.4826 -4.1657 -0.212839 29.8435 0.452851 -1.9839 -2.86713 -11.8911 2.03217e-16 0.0 3.88251e-19 19.7408 -37.821 13.8102 0.200152 36.2944 -0.793621 0.329433 -9.39861 1.57573
-35.1319 81.8268 1.19327 -68.3384 85.6605 -50.8882 0.674135 6.72724 4.15503 4.63395 1.73144 1.23193 2.59501 -0.262333 -1.35516 -6.67635 25.837 1.01991 -0.0 0.0 0.0 -0.0 0.0 0.0 2.71622e-13 1.56493e-13 2.45552e-13 81.6398 29.0135 36.795 -9.57717 -3.80282 17.0902 -1.02563 -26.7763 -4.08474 -2.30496e-09 3.46053e-09 4.24277e-09 -4.03999e-09 5.97643e-09 7.27488e-09 -2.30495e-09 3.46053e-09 4.24277e-09 7.73091 5.47488 0.417314 -2.30496e-09 3.46053e-09 4.24278e-09 2.90554 0.965183 0.102902 -2.30494e-09 3.46053e-09 4.24278e-09 10.2786 0.731801 0.0259123 -2.30496e-09 3.46053e-09 4.24279e-09 2.22167 -0.733487 -0.20892 2.7155e-13 1.56497e-13 2.45322e-13 -25.5139 59.1906 -85.0162 12.6134 -5.73302 -22.9722 3.50578 -44.7863 8.12144 1.15198e-09 2.55567e-09 -3.30995e-09 2.07689e-09 4.36622e-09 -5.66225e-09 1.15198e-09 2.55568e-09 -3.30995e-09 -7.73091 5.47488 -0.417314 1.15198e-09 2.55567e-09 -3.30995e-09 -2.90554 0.965183 -0.102902 1.15198e-09 2.55567e-09 -3.30996e-09 -10.2786 0.731801 -0.0259123 1.15199e-09 2.55568e-09 -3.30997e-09 -2.22167 -0.733487 0.20892 -2.03217e-16 0.0 -3.88251e-19 -11.2263 -37.2124 -4.1447 -0.209097 29.6429 0.450199 -1.99097 -2.95972 -11.7947 2.03217e-16 0.0 3.88251e-19 19.4013 -37.5586 13.6075 0.194721 36.0388 -0.786159 0.32821 -9.35055 1.56479
-35.1218 81.8271 1.17543 -68.2023 85.7092 -50.7636 0.543104 6.4881 3.98787 4.48277 1.66923 1.1788 2.45231 -0.241519 -1.29416 -6.37055 24.897 1.0054 -0.0 0.0 0.0 -0.0 0.0 0.0 3.36131e-13 2.96138e-13 2.98274e-13 79.3915 28.3407 35.0816 -9.27669 -3.68084 16.4802 -0.911691 -25.7809 -3.89868 -3.37556e-09 4.17334e-09 4.88687e-09 -5.89741e-09 7.20775e-09 8.36447e-09 -3.37556e-09 4.17334e-09 4.88688e-09 7.73091 5.47488 0.417314 -3.37557e-09 4.17334e-09 4.88688e-09 2.90554 0.965183 0.102902 -3.37555e-09 4.17334e-09 4.88687e-09 10.2786 0.731801 0.0259123 -3.37557e-09 4.17335e-09 4.88689e-09 2.22167 -0.733487 -0.20892 3.3601e-13 2.9614e-13 2.98008e-13 -28.1816 59.8508 -79.1597 12.2066 -5.53833 -22.0711 3.04426 -43.0284 7.57325 1.0491e-09 2.70235e-09 -3.58474e-09 1.90436e-09 4.61393e-09 -6.13645e-09 1.0491e-09 2.70235e-09 -3.58473e-09 -7.73091 5.47488 -0.417314 1.0491e-09 2.70235e-09 -3.58474e-09 -2.90554 0.965183 -0.102902 1.04911e-09 2.70235e-09 -3.58475e-09 -10.2786 0.731801 -0.0259123 1.04911e-09 2.70236e-09 -3.58476e-09 -2.22167 -0.733487 0.20892 -2.03217e-16 0.0 -3.88251e-19 -10.8363 -35.9076 -3.94493 -0.190235 28.513 0.427992 -1.91396 -2.85752 -11.3483 2.03217e-16 0.0 3.88251e-19 18.1877 -36.423 12.8632 0.170642 34.902 -0.749936 0.324667 -9.01847 1.50314
-35.106 81.8283 1.15642 -68.1231 85.7658 -50.7176 0.463006 6.34897 3.8867 4.39134 1.63057 1.14668 2.35435 -0.225446 -1.25841 -6.17256 24.3361 0.997581 -0.0 0.0 0.0 -0.0 0.0 0.0 3.55121e-13 4.21349e-13 3.09856e-13 77.997 27.9405 34.0652 -9.09944 -3.60963 16.1224 -0.851237 -25.2456 -3.79979 -3.7489e-09 4.3748e-09 4.95087e-09 -6.54235e-09 7.55627e-09 8.46689e-09 -3.74889e-09 4.3748e-09 4.95088e-09 7.73091 5.47488 0.417314 -3.7489e-09 4.3748e-09 4.95088e-09 2.90554 0.965183 0.102902 -3.74888e-09 4.37481e-09 4.95087e-09 10.2786 0.731801 0.0259123 -3.7489e-09 4.37481e-09 4.95089e-09 2.22167 -0.733487 -0.20892 3.54962e-13 4.21349e-13 3.09557e-13 -29.9368 60.0687 -75.4622 11.9564 -5.41802 -21.5254 2.78109 -41.9255 7.25081 9.83701e-10 2.63089e-09 -3.51607e-09 1.78802e-09 4.48852e-09 -6.01898e-09 9.83699e-10 2.63089e-09 -3.51606e-09 -7.73091 5.47488 -0.417314 9.83703e-10 2.6309e-09 -3.51607e-09 -2.90554 0.965183 -0.102902 9.83706e-10 2.6309e-09 -3.51607e-09 -10.2786 0.731801 -0.0259123 9.83706e-10 2.6309e-09 -3.51609e-09 -2.22167 -0.733487 0.20892 -2.03217e-16 0.0 -3.88251e-19 -10.6161 -35.1219 -3.81665 -0.179466 27.8426 0.415129 -1.87054 -2.79992 -11.0884 2.03217e-16 0.0 3.88251e-19 17.4675 -35.7305 12.4373 0.156742 34.2116 -0.728731 0.321543 -8.81629 1.46238
